<svg width="90" height="67" viewBox="0 0 90 67" fill="none" xmlns="http://www.w3.org/2000/svg">
<path d="M27.1255 10.3868C27.4668 10.5575 27.6637 10.8266 27.7162 11.1941C27.7819 11.5617 27.69 11.8964 27.4406 12.1983C27.2699 12.4346 27.0468 12.5659 26.7711 12.5921C26.5086 12.6184 26.2395 12.5659 25.9638 12.4346C25.6488 12.2902 25.314 12.1786 24.9596 12.0999C24.6183 12.0211 24.2573 11.9817 23.8767 11.9817C23.1678 11.9817 22.5312 12.0933 21.9667 12.3165C21.4154 12.5396 20.9428 12.8612 20.549 13.2813C20.1552 13.6882 19.8533 14.1739 19.6433 14.7384C19.4464 15.3028 19.3479 15.9263 19.3479 16.6089C19.3479 17.4097 19.4595 18.1054 19.6827 18.6961C19.9189 19.2868 20.2406 19.779 20.6475 20.1729C21.0544 20.5667 21.5335 20.862 22.0849 21.0589C22.6362 21.2427 23.2335 21.3346 23.8767 21.3346C24.2311 21.3346 24.5855 21.3018 24.9399 21.2361C25.2944 21.1705 25.6357 21.0523 25.9638 20.8817C26.2395 20.7504 26.5086 20.7045 26.7711 20.7439C27.0468 20.7832 27.2765 20.9211 27.4603 21.1574C27.7228 21.4855 27.8147 21.8268 27.7359 22.1812C27.6703 22.5225 27.4734 22.772 27.1452 22.9295C26.8039 23.1001 26.4495 23.2445 26.082 23.3627C25.7275 23.4677 25.3666 23.5464 24.999 23.5989C24.6315 23.6646 24.2573 23.6974 23.8767 23.6974C22.9315 23.6974 22.0324 23.5464 21.1791 23.2445C20.339 22.9426 19.5842 22.4963 18.9147 21.9056C18.2584 21.3149 17.7399 20.5798 17.3592 19.7003C16.9785 18.8077 16.7882 17.7772 16.7882 16.6089C16.7882 15.5982 16.9589 14.6662 17.3002 13.8129C17.6546 12.9597 18.1468 12.2246 18.7769 11.6076C19.4201 10.9775 20.1749 10.4919 21.0413 10.1506C21.9077 9.79614 22.8528 9.61893 23.8767 9.61893C24.4542 9.61893 25.0187 9.68456 25.57 9.81583C26.1213 9.94709 26.6399 10.1374 27.1255 10.3868ZM37.2651 12.7694C37.6063 12.7694 37.8886 12.8809 38.1117 13.1041C38.3349 13.3272 38.4465 13.616 38.4465 13.9705V22.2994C38.4465 22.6407 38.3349 22.9295 38.1117 23.1658C37.8886 23.3889 37.6063 23.5005 37.2651 23.5005C36.9238 23.5005 36.6415 23.3889 36.4184 23.1658C36.1952 22.9295 36.0836 22.6407 36.0836 22.2994V21.3346L36.5168 21.5118C36.5168 21.6824 36.4249 21.8925 36.2412 22.1419C36.0574 22.3781 35.808 22.6144 35.4929 22.8507C35.1779 23.087 34.8038 23.2905 34.3706 23.4611C33.9505 23.6186 33.4911 23.6974 32.9923 23.6974C32.0865 23.6974 31.2661 23.4677 30.531 23.0082C29.7959 22.5357 29.2118 21.8925 28.7786 21.0786C28.3585 20.2516 28.1485 19.3065 28.1485 18.2432C28.1485 17.1668 28.3585 16.2217 28.7786 15.4078C29.2118 14.5808 29.7894 13.9376 30.5113 13.4782C31.2333 13.0056 32.034 12.7694 32.9135 12.7694C33.478 12.7694 33.9965 12.8547 34.469 13.0253C34.9416 13.196 35.3485 13.4126 35.6898 13.6751C36.0443 13.9376 36.3134 14.2067 36.4971 14.4824C36.694 14.7449 36.7925 14.9681 36.7925 15.1519L36.0836 15.4078V13.9705C36.0836 13.6292 36.1952 13.3469 36.4184 13.1238C36.6415 12.8875 36.9238 12.7694 37.2651 12.7694ZM33.2876 21.5315C33.8652 21.5315 34.3706 21.3871 34.8038 21.0983C35.237 20.8095 35.5717 20.4157 35.808 19.9169C36.0574 19.4181 36.1821 18.8602 36.1821 18.2432C36.1821 17.6131 36.0574 17.0487 35.808 16.5499C35.5717 16.051 35.237 15.6572 34.8038 15.3685C34.3706 15.0797 33.8652 14.9353 33.2876 14.9353C32.7232 14.9353 32.2244 15.0797 31.7912 15.3685C31.358 15.6572 31.0167 16.051 30.7673 16.5499C30.531 17.0487 30.4129 17.6131 30.4129 18.2432C30.4129 18.8602 30.531 19.4181 30.7673 19.9169C31.0167 20.4157 31.358 20.8095 31.7912 21.0983C32.2244 21.3871 32.7232 21.5315 33.2876 21.5315ZM41.2017 23.5005C40.8604 23.5005 40.5782 23.3889 40.355 23.1658C40.1319 22.9295 40.0203 22.6407 40.0203 22.2994V14.1674C40.0203 13.8261 40.1319 13.5438 40.355 13.3207C40.5782 13.0844 40.8604 12.9663 41.2017 12.9663C41.543 12.9663 41.8252 13.0844 42.0484 13.3207C42.2715 13.5438 42.3831 13.8261 42.3831 14.1674V16.0182L42.2453 14.699C42.3897 14.3839 42.5734 14.1083 42.7966 13.872C43.0329 13.6226 43.2954 13.4191 43.5842 13.2616C43.873 13.091 44.1815 12.9663 44.5096 12.8875C44.8378 12.8087 45.166 12.7694 45.4942 12.7694C45.888 12.7694 46.2161 12.8809 46.4787 13.1041C46.7543 13.3272 46.8922 13.5898 46.8922 13.8917C46.8922 14.3249 46.7806 14.6399 46.5574 14.8368C46.3343 15.0206 46.0914 15.1125 45.8289 15.1125C45.5795 15.1125 45.3498 15.0665 45.1397 14.9746C44.9428 14.8828 44.7131 14.8368 44.4506 14.8368C44.2143 14.8368 43.9714 14.8959 43.722 15.014C43.4858 15.119 43.2626 15.2897 43.0526 15.526C42.8557 15.7623 42.6916 16.0576 42.5603 16.412C42.4422 16.7533 42.3831 17.1603 42.3831 17.6328V22.2994C42.3831 22.6407 42.2715 22.9295 42.0484 23.1658C41.8252 23.3889 41.543 23.5005 41.2017 23.5005ZM49.7983 22.2994C49.7983 22.6407 49.6867 22.9295 49.4636 23.1658C49.2404 23.3889 48.9582 23.5005 48.6169 23.5005C48.2756 23.5005 47.9934 23.3889 47.7702 23.1658C47.5471 22.9295 47.4355 22.6407 47.4355 22.2994V14.1674C47.4355 13.8261 47.5471 13.5438 47.7702 13.3207C47.9934 13.0844 48.2756 12.9663 48.6169 12.9663C48.9582 12.9663 49.2404 13.0844 49.4636 13.3207C49.6867 13.5438 49.7983 13.8261 49.7983 14.1674V22.2994ZM48.5972 11.6864C48.1509 11.6864 47.8358 11.6142 47.6521 11.4698C47.4683 11.3254 47.3764 11.0694 47.3764 10.7019V10.3278C47.3764 9.9471 47.4749 9.69112 47.6718 9.55986C47.8818 9.41546 48.1968 9.34326 48.6169 9.34326C49.0763 9.34326 49.3979 9.41546 49.5817 9.55986C49.7655 9.70425 49.8574 9.96022 49.8574 10.3278V10.7019C49.8574 11.0826 49.7589 11.3451 49.562 11.4895C49.3651 11.6208 49.0435 11.6864 48.5972 11.6864ZM56.6963 12.7694C57.6152 12.7694 58.4356 13.0056 59.1576 13.4782C59.8927 13.9376 60.4703 14.5743 60.8903 15.3881C61.3235 16.202 61.5401 17.1471 61.5401 18.2235C61.5401 19.2999 61.3235 20.2516 60.8903 21.0786C60.4703 21.8925 59.8992 22.5357 59.1773 23.0082C58.4684 23.4677 57.6677 23.6974 56.7751 23.6974C56.25 23.6974 55.7578 23.6121 55.2983 23.4414C54.8389 23.2708 54.4319 23.0542 54.0775 22.7916C53.7362 22.5291 53.4671 22.2666 53.2702 22.004C53.0865 21.7284 52.9946 21.4987 52.9946 21.3149L53.605 21.0589V22.4963C53.605 22.8376 53.4934 23.1264 53.2702 23.3627C53.0471 23.5858 52.7648 23.6974 52.4236 23.6974C52.0823 23.6974 51.8 23.5858 51.5769 23.3627C51.3537 23.1395 51.2421 22.8507 51.2421 22.4963V10.1309C51.2421 9.78957 51.3537 9.50735 51.5769 9.28419C51.8 9.04791 52.0823 8.92977 52.4236 8.92977C52.7648 8.92977 53.0471 9.04791 53.2702 9.28419C53.4934 9.50735 53.605 9.78957 53.605 10.1309V15.1322L53.2702 14.955C53.2702 14.7843 53.3621 14.5808 53.5459 14.3446C53.7297 14.0952 53.9791 13.8523 54.2941 13.616C54.6092 13.3666 54.9701 13.1632 55.3771 13.0056C55.7971 12.8481 56.2369 12.7694 56.6963 12.7694ZM56.401 14.9353C55.8234 14.9353 55.318 15.0797 54.8848 15.3685C54.4516 15.6572 54.1103 16.051 53.8609 16.5499C53.6247 17.0356 53.5065 17.5934 53.5065 18.2235C53.5065 18.8405 53.6247 19.4049 53.8609 19.9169C54.1103 20.4157 54.4516 20.8095 54.8848 21.0983C55.318 21.3871 55.8234 21.5315 56.401 21.5315C56.9785 21.5315 57.4774 21.3871 57.8974 21.0983C58.3306 20.8095 58.6653 20.4157 58.9016 19.9169C59.151 19.4049 59.2757 18.8405 59.2757 18.2235C59.2757 17.5934 59.151 17.0356 58.9016 16.5499C58.6653 16.051 58.3306 15.6572 57.8974 15.3685C57.4774 15.0797 56.9785 14.9353 56.401 14.9353ZM67.5836 23.6974C66.4678 23.6974 65.4964 23.4677 64.6694 23.0082C63.8556 22.5357 63.2255 21.899 62.7792 21.0983C62.346 20.2976 62.1294 19.3918 62.1294 18.381C62.1294 17.1996 62.3657 16.1954 62.8383 15.3685C63.324 14.5283 63.954 13.8851 64.7285 13.4388C65.503 12.9925 66.3234 12.7694 67.1898 12.7694C67.8593 12.7694 68.4893 12.9072 69.08 13.1828C69.6839 13.4585 70.2155 13.8392 70.6749 14.3249C71.1344 14.7974 71.4954 15.3488 71.7579 15.9788C72.0336 16.6089 72.1714 17.2784 72.1714 17.9872C72.1583 18.3023 72.0336 18.5583 71.7973 18.7552C71.561 18.9521 71.2853 19.0505 70.9703 19.0505H63.4487L62.858 17.0815H70.0842L69.6511 17.4753V16.9437C69.6248 16.563 69.487 16.2217 69.2376 15.9198C69.0013 15.6179 68.6994 15.3816 68.3318 15.2109C67.9774 15.0272 67.5967 14.9353 67.1898 14.9353C66.796 14.9353 66.4284 14.9878 66.0871 15.0928C65.7458 15.1978 65.4505 15.375 65.2011 15.6244C64.9517 15.8738 64.7548 16.2086 64.6104 16.6286C64.466 17.0487 64.3938 17.5803 64.3938 18.2235C64.3938 18.9324 64.5382 19.5362 64.827 20.035C65.1289 20.5207 65.5096 20.8948 65.969 21.1574C66.4416 21.4068 66.9404 21.5315 67.4654 21.5315C67.9511 21.5315 68.3384 21.4921 68.6272 21.4133C68.916 21.3346 69.1457 21.2427 69.3163 21.1377C69.5001 21.0195 69.6642 20.9211 69.8086 20.8423C70.0449 20.7242 70.268 20.6651 70.478 20.6651C70.7668 20.6651 71.0031 20.7636 71.1869 20.9605C71.3838 21.1574 71.4822 21.3871 71.4822 21.6496C71.4822 22.004 71.2985 22.3256 70.9309 22.6144C70.5896 22.9032 70.1105 23.1592 69.4935 23.3823C68.8766 23.5924 68.2399 23.6974 67.5836 23.6974Z" fill="#091E42"/>
<line x1="14.0544" y1="33.0592" x2="74.9378" y2="32.5057" stroke="#091E42" stroke-linecap="round"/>
<path d="M13.5778 54.7607C13.9191 54.7607 14.2013 54.8723 14.4245 55.0954C14.6607 55.3055 14.7789 55.5811 14.7789 55.9224C14.7789 56.2506 14.6607 56.5263 14.4245 56.7494C14.2013 56.9594 13.9191 57.0645 13.5778 57.0645H7.17847C6.83718 57.0645 6.54839 56.9529 6.31211 56.7297C6.08895 56.4934 5.97737 56.2046 5.97737 55.8634V44.4824C5.97737 44.1411 6.09551 43.8589 6.3318 43.6358C6.56808 43.3995 6.86999 43.2813 7.23754 43.2813C7.55259 43.2813 7.82825 43.3995 8.06453 43.6358C8.31394 43.8589 8.43864 44.1411 8.43864 44.4824V55.0954L8.00546 54.7607H13.5778ZM24.4767 46.3333C24.818 46.3333 25.1003 46.4449 25.3234 46.668C25.5466 46.8912 25.6581 47.18 25.6581 47.5344V55.8634C25.6581 56.2046 25.5466 56.4934 25.3234 56.7297C25.1003 56.9529 24.818 57.0645 24.4767 57.0645C24.1354 57.0645 23.8532 56.9529 23.6301 56.7297C23.4069 56.4934 23.2953 56.2046 23.2953 55.8634V54.8985L23.7285 55.0757C23.7285 55.2464 23.6366 55.4564 23.4529 55.7058C23.2691 55.9421 23.0197 56.1784 22.7046 56.4147C22.3896 56.651 22.0155 56.8544 21.5823 57.0251C21.1622 57.1826 20.7028 57.2614 20.204 57.2614C19.2982 57.2614 18.4778 57.0316 17.7427 56.5722C17.0076 56.0996 16.4235 55.4564 15.9903 54.6426C15.5702 53.8156 15.3602 52.8704 15.3602 51.8072C15.3602 50.7308 15.5702 49.7857 15.9903 48.9718C16.4235 48.1448 17.001 47.5016 17.723 47.0422C18.445 46.5696 19.2457 46.3333 20.1252 46.3333C20.6897 46.3333 21.2082 46.4186 21.6807 46.5893C22.1533 46.7599 22.5602 46.9765 22.9015 47.2391C23.2559 47.5016 23.525 47.7707 23.7088 48.0464C23.9057 48.3089 24.0042 48.5321 24.0042 48.7158L23.2953 48.9718V47.5344C23.2953 47.1931 23.4069 46.9109 23.6301 46.6877C23.8532 46.4515 24.1354 46.3333 24.4767 46.3333ZM20.4993 55.0954C21.0769 55.0954 21.5823 54.951 22.0155 54.6623C22.4487 54.3735 22.7834 53.9797 23.0197 53.4808C23.2691 52.982 23.3938 52.4241 23.3938 51.8072C23.3938 51.1771 23.2691 50.6126 23.0197 50.1138C22.7834 49.615 22.4487 49.2212 22.0155 48.9324C21.5823 48.6436 21.0769 48.4992 20.4993 48.4992C19.9349 48.4992 19.4361 48.6436 19.0029 48.9324C18.5697 49.2212 18.2284 49.615 17.979 50.1138C17.7427 50.6126 17.6246 51.1771 17.6246 51.8072C17.6246 52.4241 17.7427 52.982 17.979 53.4808C18.2284 53.9797 18.5697 54.3735 19.0029 54.6623C19.4361 54.951 19.9349 55.0954 20.4993 55.0954ZM39.2457 46.5302C39.5477 46.5302 39.8102 46.6484 40.0333 46.8846C40.2565 47.1078 40.3681 47.3966 40.3681 47.751C40.3681 47.8429 40.3615 47.9282 40.3484 48.007C40.3353 48.0726 40.3156 48.1382 40.2893 48.2039L37.2767 56.3162C37.1848 56.5788 37.0208 56.7822 36.7845 56.9266C36.5482 57.0579 36.2988 57.1038 36.0362 57.0645C35.5899 57.0382 35.2552 56.7888 35.032 56.3162L33.0827 50.7045L33.5947 50.7242L31.7635 56.3162C31.5403 56.7888 31.2056 57.0382 30.7593 57.0645C30.5099 57.1038 30.2605 57.0579 30.0111 56.9266C29.7748 56.7822 29.6107 56.5788 29.5188 56.3162L26.5062 48.2039C26.4537 48.0595 26.4274 47.9085 26.4274 47.751C26.4274 47.436 26.5325 47.1537 26.7425 46.9043C26.9525 46.6549 27.2413 46.5302 27.6089 46.5302C27.8583 46.5302 28.0814 46.5893 28.2783 46.7074C28.4752 46.8256 28.6131 47.0159 28.6918 47.2784L31.0743 53.7368L30.5821 53.6974L32.3739 48.834C32.5839 48.3483 32.9449 48.1054 33.4568 48.1054C33.7456 48.1054 33.9622 48.1711 34.1066 48.3023C34.2641 48.4205 34.3888 48.5977 34.4807 48.834L36.2725 53.6974L35.6818 53.7762L38.1037 47.2784C38.2612 46.7796 38.6419 46.5302 39.2457 46.5302ZM47.2173 57.0645C46.8498 57.0645 46.5479 56.9529 46.3116 56.7297C46.0884 56.4934 45.9769 56.2046 45.9769 55.8634V44.4824C45.9769 44.1411 46.0884 43.8589 46.3116 43.6358C46.5479 43.3995 46.8367 43.2813 47.178 43.2813H53.5773C53.9186 43.2813 54.2008 43.3929 54.4239 43.6161C54.6602 43.8261 54.7784 44.1018 54.7784 44.4431C54.7784 44.7318 54.6602 44.9878 54.4239 45.211C54.2008 45.4341 53.9186 45.5457 53.5773 45.5457H48.2609L48.4381 45.3094V49.2671L48.3003 49.0112H52.6912C53.0325 49.0112 53.3147 49.1228 53.5379 49.3459C53.7742 49.5559 53.8923 49.8316 53.8923 50.1729C53.8923 50.4617 53.7742 50.7177 53.5379 50.9408C53.3147 51.164 53.0325 51.2755 52.6912 51.2755H48.2609L48.4381 51.0983V55.8634C48.4381 56.2046 48.3134 56.4934 48.064 56.7297C47.8277 56.9529 47.5455 57.0645 47.2173 57.0645ZM58.0769 55.8634C58.0769 56.2046 57.9653 56.4934 57.7422 56.7297C57.519 56.9529 57.2368 57.0645 56.8955 57.0645C56.5542 57.0645 56.272 56.9529 56.0488 56.7297C55.8257 56.4934 55.7141 56.2046 55.7141 55.8634V47.7313C55.7141 47.39 55.8257 47.1078 56.0488 46.8846C56.272 46.6484 56.5542 46.5302 56.8955 46.5302C57.2368 46.5302 57.519 46.6484 57.7422 46.8846C57.9653 47.1078 58.0769 47.39 58.0769 47.7313V55.8634ZM56.8758 45.2504C56.4295 45.2504 56.1145 45.1782 55.9307 45.0338C55.7469 44.8894 55.655 44.6334 55.655 44.2658V43.8917C55.655 43.5111 55.7535 43.2551 55.9504 43.1238C56.1604 42.9794 56.4755 42.9072 56.8955 42.9072C57.3549 42.9072 57.6766 42.9794 57.8603 43.1238C58.0441 43.2682 58.136 43.5242 58.136 43.8917V44.2658C58.136 44.6465 58.0375 44.9091 57.8406 45.0535C57.6437 45.1847 57.3221 45.2504 56.8758 45.2504ZM60.7022 57.0645C60.3609 57.0645 60.0787 56.9529 59.8555 56.7297C59.6323 56.4934 59.5208 56.2046 59.5208 55.8634V47.7313C59.5208 47.39 59.6323 47.1078 59.8555 46.8846C60.0787 46.6484 60.3609 46.5302 60.7022 46.5302C61.0435 46.5302 61.3257 46.6484 61.5488 46.8846C61.772 47.1078 61.8836 47.39 61.8836 47.7313V49.5822L61.7458 48.263C61.8901 47.9479 62.0739 47.6722 62.2971 47.436C62.5334 47.1866 62.7959 46.9831 63.0847 46.8256C63.3735 46.6549 63.6819 46.5302 64.0101 46.4515C64.3383 46.3727 64.6665 46.3333 64.9946 46.3333C65.3884 46.3333 65.7166 46.4449 65.9791 46.668C66.2548 46.8912 66.3926 47.1537 66.3926 47.4557C66.3926 47.8888 66.2811 48.2039 66.0579 48.4008C65.8347 48.5846 65.5919 48.6764 65.3294 48.6764C65.08 48.6764 64.8502 48.6305 64.6402 48.5386C64.4433 48.4467 64.2136 48.4008 63.951 48.4008C63.7148 48.4008 63.4719 48.4599 63.2225 48.578C62.9862 48.683 62.7631 48.8537 62.553 49.0899C62.3561 49.3262 62.1921 49.6216 62.0608 49.976C61.9427 50.3173 61.8836 50.7242 61.8836 51.1968V55.8634C61.8836 56.2046 61.772 56.4934 61.5488 56.7297C61.3257 56.9529 61.0435 57.0645 60.7022 57.0645ZM72.6067 46.3333C73.6569 46.3333 74.4313 46.5893 74.9302 47.1012C75.429 47.6 75.7571 48.2498 75.9147 49.0506L75.5799 48.8733L75.7375 48.5583C75.895 48.2564 76.1378 47.9348 76.466 47.5935C76.7942 47.2391 77.188 46.9437 77.6474 46.7074C78.12 46.458 78.645 46.3333 79.2226 46.3333C80.1677 46.3333 80.8831 46.5368 81.3688 46.9437C81.8677 47.3506 82.209 47.8954 82.3927 48.578C82.5765 49.2475 82.6684 49.9957 82.6684 50.8227V55.8634C82.6684 56.2046 82.5568 56.4934 82.3337 56.7297C82.1105 56.9529 81.8283 57.0645 81.487 57.0645C81.1457 57.0645 80.8635 56.9529 80.6403 56.7297C80.4171 56.4934 80.3056 56.2046 80.3056 55.8634V50.8227C80.3056 50.3895 80.2531 50.0022 80.148 49.661C80.043 49.3065 79.8527 49.0243 79.577 48.8143C79.3014 48.6042 78.9076 48.4992 78.3956 48.4992C77.8968 48.4992 77.4702 48.6042 77.1158 48.8143C76.7613 49.0243 76.4922 49.3065 76.3085 49.661C76.1378 50.0022 76.0525 50.3895 76.0525 50.8227V55.8634C76.0525 56.2046 75.9409 56.4934 75.7178 56.7297C75.4946 56.9529 75.2124 57.0645 74.8711 57.0645C74.5298 57.0645 74.2476 56.9529 74.0244 56.7297C73.8013 56.4934 73.6897 56.2046 73.6897 55.8634V50.8227C73.6897 50.3895 73.6372 50.0022 73.5322 49.661C73.4271 49.3065 73.2368 49.0243 72.9611 48.8143C72.6855 48.6042 72.2917 48.4992 71.7797 48.4992C71.2809 48.4992 70.8543 48.6042 70.4999 48.8143C70.1454 49.0243 69.8763 49.3065 69.6926 49.661C69.5219 50.0022 69.4366 50.3895 69.4366 50.8227V55.8634C69.4366 56.2046 69.325 56.4934 69.1019 56.7297C68.8787 56.9529 68.5965 57.0645 68.2552 57.0645C67.9139 57.0645 67.6317 56.9529 67.4085 56.7297C67.1854 56.4934 67.0738 56.2046 67.0738 55.8634V47.7313C67.0738 47.39 67.1854 47.1078 67.4085 46.8846C67.6317 46.6484 67.9139 46.5302 68.2552 46.5302C68.5965 46.5302 68.8787 46.6484 69.1019 46.8846C69.325 47.1078 69.4366 47.39 69.4366 47.7313V48.578L69.1412 48.5189C69.2594 48.2958 69.4235 48.0595 69.6335 47.8101C69.8435 47.5475 70.0995 47.3047 70.4014 47.0815C70.7033 46.8584 71.0381 46.6812 71.4056 46.5499C71.7732 46.4055 72.1735 46.3333 72.6067 46.3333Z" fill="#091E42"/>
<rect x="0.5" y="0.5" width="88.0012" height="65.565" rx="1.7503" stroke="#091E42"/>
</svg>
